<svg width="24" height="24" viewBox="0 0 24 24" fill="none" xmlns="http://www.w3.org/2000/svg">
<g id="lets-icons:user-alt-light">
<g id="Group">
<path id="Vector" d="M12 11.5C13.933 11.5 15.5 9.933 15.5 8C15.5 6.067 13.933 4.5 12 4.5C10.067 4.5 8.5 6.067 8.5 8C8.5 9.933 10.067 11.5 12 11.5Z" stroke="black" stroke-linecap="round"/>
<path id="Vector_2" d="M4.84806 16.948C5.48706 14.603 7.91306 13.5 10.3431 13.5H13.6531C16.0831 13.5 18.5091 14.603 19.1491 16.948C19.2884 17.457 19.3871 17.9763 19.4441 18.501C19.5041 19.051 19.0501 19.5 18.4981 19.5H5.49806C4.94606 19.5 4.49306 19.05 4.55206 18.502C4.60895 17.977 4.7086 17.4573 4.84806 16.948Z" stroke="black" stroke-linecap="round"/>
</g>
</g>
</svg>
