<svg width="24" height="24" viewBox="0 0 24 24" fill="none" xmlns="http://www.w3.org/2000/svg">
<g id="ei:search">
<path id="Vector" d="M11.0408 17.2769C7.58478 17.2769 4.80078 14.4929 4.80078 11.0369C4.80078 7.58087 7.58478 4.79688 11.0408 4.79688C14.4968 4.79688 17.2808 7.58087 17.2808 11.0369C17.2808 14.4929 14.4968 17.2769 11.0408 17.2769ZM11.0408 5.75687C8.11278 5.75687 5.76078 8.10888 5.76078 11.0369C5.76078 13.9649 8.11278 16.3169 11.0408 16.3169C13.9688 16.3169 16.3208 13.9649 16.3208 11.0369C16.3208 8.10888 13.9688 5.75687 11.0408 5.75687Z" fill="black"/>
<path id="Vector_2" d="M15.6865 15.0078L19.9969 19.3182L19.3182 19.9969L15.0078 15.6865L15.6865 15.0078Z" fill="black"/>
</g>
</svg>
