<svg width="78" height="17" viewBox="0 0 78 17" fill="none" xmlns="http://www.w3.org/2000/svg">
<path d="M0.84 -0.00800133H5.064L9.24 6.136L13.392 -0.00800133H17.616V16H12.504V10.24L9.24 15.04L5.952 10.24V16H0.84V-0.00800133ZM3.864 14.08V3.064L9.24 10.888L14.592 3.064V14.08H15.216V1.912H14.592L9.24 9.808L3.864 1.912H3.24V14.08H3.864ZM19.0453 5.992H25.3813V10H19.0453V5.992ZM23.9653 8.272V7.72H20.5093V8.272H23.9653ZM28.9442 4.192H25.9922V-0.00800133H37.1762V4.192H34.2242V16H28.9442V4.192ZM31.8962 14.08V2.488H35.3282V1.912H27.8402V2.488H31.2722V14.08H31.8962ZM44.5639 16.408C43.5559 16.408 42.6439 16.28 41.8279 16.024C41.0119 15.768 40.3159 15.384 39.7399 14.872C39.1639 14.36 38.7159 13.712 38.3959 12.928C38.0919 12.144 37.9399 11.224 37.9399 10.168V-0.00800133H43.0519V9.952C43.0519 10.512 43.1639 10.944 43.3879 11.248C43.6279 11.536 44.0199 11.68 44.5639 11.68C45.1079 11.68 45.4919 11.536 45.7159 11.248C45.9559 10.944 46.0759 10.512 46.0759 9.952V-0.00800133H51.2119V10.168C51.2119 11.224 51.0519 12.144 50.7319 12.928C50.4279 13.712 49.9799 14.36 49.3879 14.872C48.8119 15.384 48.1159 15.768 47.2999 16.024C46.4839 16.28 45.5719 16.408 44.5639 16.408ZM44.5639 13.528C42.1639 13.528 40.9639 12.352 40.9639 10V1.912H40.3399V10C40.3399 11.344 40.6999 12.376 41.4199 13.096C42.1559 13.8 43.2039 14.152 44.5639 14.152C45.9239 14.152 46.9719 13.8 47.7079 13.096C48.4439 12.376 48.8119 11.344 48.8119 10V1.912H48.1639V10C48.1639 12.352 46.9639 13.528 44.5639 13.528ZM52.8244 -0.00800133H57.0244L61.4404 6.16V-0.00800133H66.4564V16H62.2324L57.8404 9.856V16H52.8244V-0.00800133ZM55.6804 14.08V2.992L63.6004 14.08H64.2244V1.912H63.6004V13L55.6804 1.912H55.0564V14.08H55.6804ZM68.1291 -0.00800133H77.5611V4.192H73.2411V5.968H77.4891V9.952H73.2411V11.8H77.7291V16H68.1291V-0.00800133ZM75.9531 14.08V13.504H71.1531V8.248H75.7131V7.672H71.1531V2.488H75.9531V1.912H70.5291V14.08H75.9531Z" fill="black"/>
</svg>
